<svg width="62" height="105" viewBox="0 0 62 105" fill="none" xmlns="http://www.w3.org/2000/svg">
<path fill-rule="evenodd" clip-rule="evenodd" d="M0 101C0 103.209 1.79086 105 4 105H58C60.2091 105 62 103.209 62 101V81H0V101Z" fill="#8F9FB2"/>
<path fill-rule="evenodd" clip-rule="evenodd" d="M8 81H54V71H8V81Z" fill="#D8DFE2"/>
<path fill-rule="evenodd" clip-rule="evenodd" d="M8 71L0 81H8V71Z" fill="#8E93AB"/>
<path fill-rule="evenodd" clip-rule="evenodd" d="M54 71V81H62L54 71Z" fill="#8E93AB"/>
<path fill-rule="evenodd" clip-rule="evenodd" d="M21 81H40L30.8028 87L21 81Z" fill="#D8DFE2"/>
<path d="M39.5906 14C20.8285 14.7993 9.77278 25.7395 12.9109 39.9593C14.6433 47.8093 22.1654 62.7951 39.5906 62.7951C57.0158 62.7951 61.8957 49.9419 51.7943 38.9936C41.6928 28.0454 3.03901 38.9936 11.0966 62.7951C14.0436 71.5004 33.4661 74.5601 33.4661 83.8629" stroke="#8F9FB2" stroke-dasharray="3"/>
<path fill-rule="evenodd" clip-rule="evenodd" d="M48.175 9.12636C48.1796 9.12541 48.1862 9.11998 48.1946 9.11029L48.1952 9.11034L48.1949 9.1099C48.4567 8.80449 50.4588 4.36952 50.8858 2.53543C51.1169 1.54598 49.9953 -1.4652 47.8867 0.863213C45.8925 3.06529 46.2122 6.13102 47.8756 8.691C46.9529 7.49746 44.2473 4.12009 42.6229 3.37616C40.6412 2.46863 39.6688 2.9486 39.1795 4.03789C38.6899 5.12753 39.059 7.3192 42.0988 8.08603C44.9518 8.8057 47.8191 9.07673 48.1612 9.10736L48.175 9.12636ZM49.9272 10.6651C50.0861 10.1838 50.6059 9.92356 51.0842 10.0859C51.565 10.2492 51.8229 10.7728 51.6644 11.2545C51.5044 11.7388 50.9886 11.9971 50.5074 11.8342C50.0287 11.6718 49.7676 11.1498 49.9272 10.6651ZM48.5254 9.13552C50.679 9.08565 52.4272 9.95793 52.7043 11.366C52.9544 12.6216 51.951 14.1573 50.3769 14.8433C48.5763 13.9643 47.6021 11.7794 48.2495 9.7851C48.3234 9.55762 48.4182 9.34013 48.5254 9.13552ZM45.1482 10.0174C45.0525 10.212 44.964 10.4121 44.8935 10.6232C44.1669 12.8025 45.0937 15.1442 46.9885 16.3076C44.7845 16.3508 42.8664 15.5013 42.2388 14.4349C40.8878 14.5607 39.9694 14.545 39.9694 14.545C39.9694 14.545 40.7756 14.1931 42.0278 13.802C41.9424 12.7296 43.156 11.0137 45.1482 10.0174ZM48.0148 9.33943C48.06 9.27083 48.1055 9.20166 48.1422 9.12031C47.7548 9.15139 47.2656 9.22311 46.672 9.41722C46.0846 9.60931 46.017 9.64847 45.5936 9.8938L45.5801 9.90161C45.5417 9.96579 45.5081 10.02 45.4778 10.0689C45.3582 10.2616 45.2913 10.3694 45.1977 10.6674C44.4749 12.9664 46.0248 15.4918 47.4904 16.2315C47.9127 16.1736 48.1902 16.0601 48.5127 15.9282C48.5649 15.9068 48.6182 15.885 48.6735 15.8629C49.0135 15.7268 49.5666 15.4534 50.0558 15.1341C48.1075 13.9815 47.1173 11.9935 47.8575 9.63954C47.8945 9.52196 47.9543 9.4312 48.0148 9.33943Z" fill="#8F9FB2"/>
</svg>
